<svg xmlns="http://www.w3.org/2000/svg"  viewBox="0 0 48 48" width="48px" height="48px"><path d="M 40.001953 2.0058594 L 37.220703 4.7851562 L 36.242188 3.859375 C 35.831187 3.471375 35.241797 3.459375 34.841797 3.859375 L 33.355469 5.3476562 L 31.679688 3.6308594 C 30.867687 2.8128594 29.506359 2.8070469 28.693359 3.6230469 L 26.160156 6.1132812 L 29.355469 8.7382812 C 30.599469 9.7592813 30.769547 11.20175 29.810547 12.59375 L 26.494141 17.408203 C 26.225141 17.798203 25.649328 18.457609 25.236328 18.849609 L 16.140625 27.462891 C 15.346625 28.214891 14.440828 28.59375 13.548828 28.59375 C 12.763828 28.59375 11.988406 28.299078 11.316406 27.705078 L 9.0664062 25.722656 L 9.0820312 25.705078 C 8.6660312 25.330078 8.0505469 25.286891 7.6855469 25.712891 L 6.4824219 27.119141 C 6.1144219 27.549141 6.0734219 28.123625 6.4824219 28.515625 L 7.2773438 29.275391 C 5.3243437 31.700391 3.8635625 33.484 3.4765625 33.875 L 3.3671875 34.003906 C 1.0161875 37.358906 2.3815312 40.204422 2.3945312 40.232422 L 3.9394531 43.353516 C 4.1344531 43.863516 4.5572813 44.261172 5.1132812 44.451172 C 5.3432813 44.531172 5.5841719 44.570312 5.8261719 44.570312 C 6.3001719 44.570312 6.7809375 44.420859 7.2109375 44.130859 L 7.3574219 44.009766 C 7.4744219 43.892766 20.070797 31.622 22.466797 29.75 C 23.625797 28.887 24.613156 29.069625 25.660156 29.265625 C 26.335156 29.392625 27.031172 29.521922 27.701172 29.294922 L 28.228516 29.005859 C 30.118516 32.733859 36.147391 44.657 36.400391 45.5 C 36.700391 46.3 37.900391 46 37.900391 46 C 37.900391 46 41.299609 44.200391 42.099609 43.900391 C 43.199609 43.400391 42.900391 42.300781 42.900391 42.300781 L 34.605469 25.496094 L 34.761719 25.410156 C 36.453719 26.465156 38.430688 26.523437 39.679688 26.523438 L 39.835938 26.523438 L 39.980469 26.523438 L 39.980469 26.521484 L 39.982422 26.521484 C 40.809422 26.521484 41.478516 25.852391 41.478516 25.025391 C 41.478516 24.198391 40.809422 23.527344 39.982422 23.527344 L 39.980469 23.527344 L 39.980469 23.523438 L 39.832031 23.523438 C 38.651031 23.522437 37.066484 23.516906 36.021484 22.628906 C 35.986484 22.211906 35.925844 21.756953 35.839844 21.251953 L 40.511719 15.238281 C 41.182719 14.336281 41.069484 13.093781 40.271484 12.425781 L 39.060547 11.185547 L 40.789062 9.4570312 C 41.189062 9.1570312 41.189453 8.4566406 40.689453 8.0566406 L 39.269531 6.7167969 C 40.403531 5.5867969 41.902 4.1019063 42 4.0039062 L 40.001953 2.0058594 z M 23.574219 6.8691406 C 23.349844 6.8637656 23.120453 6.926125 22.939453 7.078125 L 18.726562 10.613281 C 18.343563 10.934281 18.060953 11.2515 17.876953 11.5625 L 10.177734 22.798828 C 9.9997344 23.208828 10.032125 23.807547 10.453125 24.185547 L 10.978516 24.654297 C 10.964516 24.671297 10.9515 24.688078 10.9375 24.705078 L 12.638672 26.205078 C 13.461672 26.932078 14.248625 26.500719 14.765625 26.011719 L 23.859375 17.400391 C 24.197375 17.079391 24.676656 16.520438 24.847656 16.273438 L 28.164062 11.458984 C 28.616063 10.802984 28.406937 10.549156 28.085938 10.285156 L 24.726562 7.5234375 L 24.716797 7.5332031 L 24.492188 7.3300781 L 24.179688 7.0742188 L 24.181641 7.0703125 C 24.018141 6.9478125 23.798594 6.8745156 23.574219 6.8691406 z M 32.982422 14 C 34.090422 14 34.996094 14.9 34.996094 16 C 34.996094 17.1 34.090422 18 32.982422 18 C 31.874422 18 30.96875 17.1 30.96875 16 C 30.96875 14.9 31.874422 14 32.982422 14 z M 32.943359 26.410156 L 40.800781 41.599609 C 41.000781 42.099609 40.800781 42.700391 40.300781 42.900391 C 39.800781 43.100391 39.206 42.897 39 42.5 L 31.146484 27.400391 L 32.943359 26.410156 z"/></svg>